<?xml version="1.0" encoding="utf-8" standalone="no"?>
<!DOCTYPE svg PUBLIC "-//W3C//DTD SVG 1.1//EN"
  "http://www.w3.org/Graphics/SVG/1.1/DTD/svg11.dtd">
<svg xmlns:xlink="http://www.w3.org/1999/xlink" width="468pt" height="468pt" viewBox="0 0 468 468" xmlns="http://www.w3.org/2000/svg" version="1.1">
 <metadata>
  <rdf:RDF xmlns:dc="http://purl.org/dc/elements/1.1/" xmlns:cc="http://creativecommons.org/ns#" xmlns:rdf="http://www.w3.org/1999/02/22-rdf-syntax-ns#">
   <cc:Work>
    <dc:type rdf:resource="http://purl.org/dc/dcmitype/StillImage"/>
    <dc:date>2024-11-16T16:24:47.104615</dc:date>
    <dc:format>image/svg+xml</dc:format>
    <dc:creator>
     <cc:Agent>
      <dc:title>Matplotlib v3.9.0, https://matplotlib.org/</dc:title>
     </cc:Agent>
    </dc:creator>
   </cc:Work>
  </rdf:RDF>
 </metadata>
 <defs>
  <style type="text/css">*{stroke-linejoin: round; stroke-linecap: butt}</style>
 </defs>
 <g id="figure_1">
  <g id="patch_1">
   <path d="M 0 468 
L 468 468 
L 468 0 
L 0 0 
z
" style="fill: #ffffff"/>
  </g>
  <g id="axes_1">
   <g id="patch_2">
    <path d="M 412.583482 240.232884 
Q 342.205682 144.939274 244.068222 82.054265 
" clip-path="url(#p7af9cfc625)" style="fill: none; stroke: #808080; stroke-width: 1.706456; stroke-linecap: round"/>
    <path d="M 248.645902 89.738329 
L 244.068222 82.054265 
L 252.962082 83.00256 
z
" clip-path="url(#p7af9cfc625)" style="fill: #808080; stroke: #808080; stroke-width: 1.706456; stroke-linecap: round"/>
   </g>
   <g id="patch_3">
    <path d="M 410.00061 242.995681 
Q 272.531757 157.573999 113.634262 128.066355 
" clip-path="url(#p7af9cfc625)" style="fill: none; stroke: #808080; stroke-width: 0.208588; stroke-linecap: round"/>
    <path d="M 120.769465 133.459766 
L 113.634262 128.066355 
L 122.230112 125.594239 
z
" clip-path="url(#p7af9cfc625)" style="fill: #808080; stroke: #808080; stroke-width: 0.208588; stroke-linecap: round"/>
   </g>
   <g id="patch_4">
    <path d="M 408.648024 246.409265 
Q 234.000954 213.338362 63.097631 245.700015 
" clip-path="url(#p7af9cfc625)" style="fill: none; stroke: #808080; stroke-width: 3.40801; stroke-linecap: round"/>
    <path d="M 71.702154 248.141773 
L 63.097631 245.700015 
L 70.213751 240.281452 
z
" clip-path="url(#p7af9cfc625)" style="fill: #808080; stroke: #808080; stroke-width: 3.40801; stroke-linecap: round"/>
   </g>
   <g id="patch_5">
    <path d="M 408.622925 250.090275 
Q 249.496137 279.640494 115.133597 363.131941 
" clip-path="url(#p7af9cfc625)" style="fill: none; stroke: #808080; stroke-width: 3.271087; stroke-linecap: round"/>
    <path d="M 124.039755 362.307102 
L 115.133597 363.131941 
L 119.81742 355.512112 
z
" clip-path="url(#p7af9cfc625)" style="fill: #808080; stroke: #808080; stroke-width: 3.271087; stroke-linecap: round"/>
   </g>
   <g id="patch_6">
    <path d="M 410.004162 253.650968 
Q 310.259859 317.564816 240.85194 411.544056 
" clip-path="url(#p7af9cfc625)" style="fill: none; stroke: #808080; stroke-width: 1.460908; stroke-linecap: round"/>
    <path d="M 248.822237 407.485194 
L 240.85194 411.544056 
L 242.387028 402.732501 
z
" clip-path="url(#p7af9cfc625)" style="fill: #808080; stroke: #808080; stroke-width: 1.460908; stroke-linecap: round"/>
   </g>
   <g id="patch_7">
    <path d="M 412.818868 256.57173 
Q 380.907771 304.687288 366.927026 359.953082 
" clip-path="url(#p7af9cfc625)" style="fill: none; stroke: #808080; stroke-width: 0.652087; stroke-linecap: round"/>
    <path d="M 372.766846 353.178386 
L 366.927026 359.953082 
L 365.011161 351.216408 
z
" clip-path="url(#p7af9cfc625)" style="fill: #808080; stroke: #808080; stroke-width: 0.652087; stroke-linecap: round"/>
   </g>
   <g id="patch_8">
    <path d="M 366.748075 135.979463 
Q 380.907503 191.952084 412.486878 239.567691 
" clip-path="url(#p7af9cfc625)" style="fill: none; stroke: #808080; stroke-width: 0.536621; stroke-linecap: round"/>
    <path d="M 411.398724 230.689858 
L 412.486878 239.567691 
L 404.731719 235.111515 
z
" clip-path="url(#p7af9cfc625)" style="fill: #808080; stroke: #808080; stroke-width: 0.536621; stroke-linecap: round"/>
   </g>
   <g id="patch_9">
    <path d="M 355.928441 120.995346 
Q 303.612679 89.633699 248.205532 78.426343 
" clip-path="url(#p7af9cfc625)" style="fill: none; stroke: #808080; stroke-width: 3.99504; stroke-linecap: round"/>
    <path d="M 255.253701 83.933004 
L 248.205532 78.426343 
L 256.839762 76.091804 
z
" clip-path="url(#p7af9cfc625)" style="fill: #808080; stroke: #808080; stroke-width: 3.99504; stroke-linecap: round"/>
   </g>
   <g id="patch_10">
    <path d="M 354.614867 124.363428 
Q 233.999044 102.056421 113.62623 124.318838 
" clip-path="url(#p7af9cfc625)" style="fill: none; stroke: #808080; stroke-width: 0.221039; stroke-linecap: round"/>
    <path d="M 122.220269 126.797243 
L 113.62623 124.318838 
L 120.765378 118.93065 
z
" clip-path="url(#p7af9cfc625)" style="fill: #808080; stroke: #808080; stroke-width: 0.221039; stroke-linecap: round"/>
   </g>
   <g id="patch_11">
    <path d="M 354.595017 128.023778 
Q 195.468232 157.57401 65.596411 238.274987 
" clip-path="url(#p7af9cfc625)" style="fill: none; stroke: #808080; stroke-width: 8; stroke-linecap: round"/>
    <path d="M 74.502568 237.450147 
L 65.596411 238.274987 
L 70.280233 230.655157 
z
" clip-path="url(#p7af9cfc625)" style="fill: #808080; stroke: #808080; stroke-width: 8; stroke-linecap: round"/>
   </g>
   <g id="patch_12">
    <path d="M 355.963327 131.566659 
Q 210.891589 223.626834 111.38731 359.607063 
" clip-path="url(#p7af9cfc625)" style="fill: none; stroke: #808080; stroke-width: 2.967677; stroke-linecap: round"/>
    <path d="M 119.33964 355.513109 
L 111.38731 359.607063 
L 112.883545 350.788827 
z
" clip-path="url(#p7af9cfc625)" style="fill: #808080; stroke: #808080; stroke-width: 2.967677; stroke-linecap: round"/>
   </g>
   <g id="patch_13">
    <path d="M 358.720484 134.460622 
Q 271.488498 261.328284 237.293138 406.69234 
" clip-path="url(#p7af9cfc625)" style="fill: none; stroke: #808080; stroke-width: 4.142803; stroke-linecap: round"/>
    <path d="M 243.018766 399.820864 
L 237.293138 406.69234 
L 235.231333 397.988953 
z
" clip-path="url(#p7af9cfc625)" style="fill: #808080; stroke: #808080; stroke-width: 4.142803; stroke-linecap: round"/>
   </g>
   <g id="patch_14">
    <path d="M 362.549297 136.076787 
Q 341.907011 248.321 361.213312 353.298935 
" clip-path="url(#p7af9cfc625)" style="fill: none; stroke: #808080; stroke-width: 6.608154; stroke-linecap: round"/>
    <path d="M 363.700338 344.707387 
L 361.213312 353.298935 
L 355.832289 346.154385 
z
" clip-path="url(#p7af9cfc625)" style="fill: #808080; stroke: #808080; stroke-width: 6.608154; stroke-linecap: round"/>
   </g>
   <g id="patch_15">
    <path d="M 113.393085 124.404519 
Q 173.17813 112.311567 225.470879 80.963637 
" clip-path="url(#p7af9cfc625)" style="fill: none; stroke: #808080; stroke-width: 0.023966; stroke-linecap: round"/>
    <path d="M 216.552686 81.646154 
L 225.470879 80.963637 
L 220.665977 88.507702 
z
" clip-path="url(#p7af9cfc625)" style="fill: #808080; stroke: #808080; stroke-width: 0.023966; stroke-linecap: round"/>
   </g>
   <g id="patch_16">
    <path d="M 101.679494 136.076786 
Q 81.037216 248.320985 101.679549 360.563555 
" clip-path="url(#p7af9cfc625)" style="fill: none; stroke: #808080; stroke-width: 0.001484; stroke-linecap: round"/>
    <path d="M 104.166574 351.972007 
L 101.679549 360.563555 
L 96.298525 353.419006 
z
" clip-path="url(#p7af9cfc625)" style="fill: #808080; stroke: #808080; stroke-width: 0.001484; stroke-linecap: round"/>
   </g>
   <g id="patch_17">
    <path d="M 57.995838 242.989047 
Q 157.740139 179.075191 227.462302 84.670449 
" clip-path="url(#p7af9cfc625)" style="fill: none; stroke: #808080; stroke-width: 0.987793; stroke-linecap: round"/>
    <path d="M 219.492005 88.729312 
L 227.462302 84.670449 
L 225.927214 93.482004 
z
" clip-path="url(#p7af9cfc625)" style="fill: #808080; stroke: #808080; stroke-width: 0.987793; stroke-linecap: round"/>
   </g>
   <g id="patch_18">
    <path d="M 55.18113 240.068285 
Q 87.092217 191.952727 101.198427 136.190943 
" clip-path="url(#p7af9cfc625)" style="fill: none; stroke: #808080; stroke-width: 0.19448; stroke-linecap: round"/>
    <path d="M 95.358608 142.965639 
L 101.198427 136.190943 
L 103.114293 144.927616 
z
" clip-path="url(#p7af9cfc625)" style="fill: #808080; stroke: #808080; stroke-width: 0.19448; stroke-linecap: round"/>
   </g>
   <g id="patch_19">
    <path d="M 51.850363 258.045974 
Q 66.009788 314.018583 97.878279 362.070121 
" clip-path="url(#p7af9cfc625)" style="fill: none; stroke: #808080; stroke-width: 0.068744; stroke-linecap: round"/>
    <path d="M 96.790125 353.192288 
L 97.878279 362.070121 
L 90.12312 357.613944 
z
" clip-path="url(#p7af9cfc625)" style="fill: #808080; stroke: #808080; stroke-width: 0.068744; stroke-linecap: round"/>
   </g>
   <g id="patch_20">
    <path d="M 109.279505 362.179368 
Q 196.511492 235.311711 231.490439 86.616657 
" clip-path="url(#p7af9cfc625)" style="fill: none; stroke: #808080; stroke-width: 1.082139; stroke-linecap: round"/>
    <path d="M 225.764811 93.488133 
L 231.490439 86.616657 
L 233.552243 95.320045 
z
" clip-path="url(#p7af9cfc625)" style="fill: #808080; stroke: #808080; stroke-width: 1.082139; stroke-linecap: round"/>
   </g>
   <g id="patch_21">
    <path d="M 235.907627 411.130824 
Q 266.618252 248.31862 236.104573 86.55332 
" clip-path="url(#p7af9cfc625)" style="fill: none; stroke: #808080; stroke-width: 0.952891; stroke-linecap: round"/>
    <path d="M 233.656775 95.156127 
L 236.104573 86.55332 
L 241.518139 93.673243 
z
" clip-path="url(#p7af9cfc625)" style="fill: #808080; stroke: #808080; stroke-width: 0.952891; stroke-linecap: round"/>
   </g>
   <g id="patch_22">
    <path d="M 231.767237 411.199964 
Q 196.511054 261.327269 109.290718 134.476913 
" clip-path="url(#p7af9cfc625)" style="fill: none; stroke: #808080; stroke-width: 0.018694; stroke-linecap: round"/>
    <path d="M 110.527289 143.335293 
L 109.290718 134.476913 
L 117.119364 138.802684 
z
" clip-path="url(#p7af9cfc625)" style="fill: #808080; stroke: #808080; stroke-width: 0.018694; stroke-linecap: round"/>
   </g>
   <g id="patch_23">
    <path d="M 228.120674 412.860984 
Q 157.742875 317.567381 58.692033 254.097093 
" clip-path="url(#p7af9cfc625)" style="fill: none; stroke: #808080; stroke-width: 0.736164; stroke-linecap: round"/>
    <path d="M 63.269713 261.781158 
L 58.692033 254.097093 
L 67.585892 255.045388 
z
" clip-path="url(#p7af9cfc625)" style="fill: #808080; stroke: #808080; stroke-width: 0.736164; stroke-linecap: round"/>
   </g>
   <g id="patch_24">
    <path d="M 225.493541 415.689942 
Q 173.177778 384.32829 113.98713 372.355632 
" clip-path="url(#p7af9cfc625)" style="fill: none; stroke: #808080; stroke-width: 0.542442; stroke-linecap: round"/>
    <path d="M 121.035299 377.862293 
L 113.98713 372.355632 
L 122.62136 370.021093 
z
" clip-path="url(#p7af9cfc625)" style="fill: #808080; stroke: #808080; stroke-width: 0.542442; stroke-linecap: round"/>
   </g>
   <g id="patch_25">
    <path d="M 362.202115 360.638383 
Q 326.945942 210.765679 240.087094 84.441041 
" clip-path="url(#p7af9cfc625)" style="fill: none; stroke: #808080; stroke-width: 0.589351; stroke-linecap: round"/>
    <path d="M 241.323665 93.299421 
L 240.087094 84.441041 
L 247.91574 88.766813 
z
" clip-path="url(#p7af9cfc625)" style="fill: #808080; stroke: #808080; stroke-width: 0.589351; stroke-linecap: round"/>
   </g>
   <g id="patch_26">
    <path d="M 358.572468 362.285324 
Q 257.108927 223.627348 112.108207 131.612055 
" clip-path="url(#p7af9cfc625)" style="fill: none; stroke: #808080; stroke-width: 0.075118; stroke-linecap: round"/>
    <path d="M 116.71971 139.275869 
L 112.108207 131.612055 
L 121.006159 132.521141 
z
" clip-path="url(#p7af9cfc625)" style="fill: #808080; stroke: #808080; stroke-width: 0.075118; stroke-linecap: round"/>
   </g>
   <g id="patch_27">
    <path d="M 355.97268 365.062199 
Q 218.503839 279.640517 59.427535 250.099661 
" clip-path="url(#p7af9cfc625)" style="fill: none; stroke: #808080; stroke-width: 0.045915; stroke-linecap: round"/>
    <path d="M 66.562738 255.493072 
L 59.427535 250.099661 
L 68.023386 247.627545 
z
" clip-path="url(#p7af9cfc625)" style="fill: #808080; stroke: #808080; stroke-width: 0.045915; stroke-linecap: round"/>
   </g>
   <g id="patch_28">
    <path d="M 354.614845 368.496442 
Q 233.999031 346.189422 113.569597 368.462296 
" clip-path="url(#p7af9cfc625)" style="fill: none; stroke: #808080; stroke-width: 0.169535; stroke-linecap: round"/>
    <path d="M 122.163635 370.940702 
L 113.569597 368.462296 
L 120.708745 363.074108 
z
" clip-path="url(#p7af9cfc625)" style="fill: #808080; stroke: #808080; stroke-width: 0.169535; stroke-linecap: round"/>
   </g>
   <g id="patch_29">
    <path d="M 354.606895 372.2355 
Q 294.821858 384.328445 242.558868 415.658528 
" clip-path="url(#p7af9cfc625)" style="fill: none; stroke: #808080; stroke-width: 0.054995; stroke-linecap: round"/>
    <path d="M 251.477062 414.976011 
L 242.558868 415.658528 
L 247.363771 408.114463 
z
" clip-path="url(#p7af9cfc625)" style="fill: #808080; stroke: #808080; stroke-width: 0.054995; stroke-linecap: round"/>
   </g>
   <g id="PathCollection_1">
    <path d="M 418.46281 273.063236 
C 425.024793 273.063236 431.318897 270.456133 435.95892 265.81611 
C 440.598943 261.176087 443.206046 254.881983 443.206046 248.32 
C 443.206046 241.758017 440.598943 235.463913 435.95892 230.82389 
C 431.318897 226.183867 425.024793 223.576764 418.46281 223.576764 
C 411.900827 223.576764 405.606723 226.183867 400.9667 230.82389 
C 396.326677 235.463913 393.719574 241.758017 393.719574 248.32 
C 393.719574 254.881983 396.326677 261.176087 400.9667 265.81611 
C 405.606723 270.456133 411.900827 273.063236 418.46281 273.063236 
z
" clip-path="url(#p7af9cfc625)" style="fill: #87ceeb; fill-opacity: 0.7; stroke: #000000; stroke-opacity: 0.7; stroke-width: 7.346733"/>
    <path d="M 364.434902 141.698964 
C 368.531086 141.698964 372.460053 140.071533 375.356492 137.175093 
C 378.252932 134.278654 379.880363 130.349687 379.880363 126.253503 
C 379.880363 122.157318 378.252932 118.228352 375.356492 115.331912 
C 372.460053 112.435472 368.531086 110.808041 364.434902 110.808041 
C 360.338717 110.808041 356.409751 112.435472 353.513311 115.331912 
C 350.616871 118.228352 348.98944 122.157318 348.98944 126.253503 
C 348.98944 130.349687 350.616871 134.278654 353.513311 137.175093 
C 356.409751 140.071533 360.338717 141.698964 364.434902 141.698964 
z
" clip-path="url(#p7af9cfc625)" style="fill: #87ceeb; fill-opacity: 0.7; stroke: #000000; stroke-opacity: 0.7; stroke-width: 2.862747"/>
    <path d="M 233.999992 80.406146 
C 235.250224 80.406146 236.449419 79.909423 237.333466 79.025375 
C 238.217514 78.141327 238.714237 76.942133 238.714237 75.691901 
C 238.714237 74.441669 238.217514 73.242474 237.333466 72.358426 
C 236.449419 71.474379 235.250224 70.977656 233.999992 70.977656 
C 232.74976 70.977656 231.550565 71.474379 230.666518 72.358426 
C 229.78247 73.242474 229.285747 74.441669 229.285747 75.691901 
C 229.285747 76.942133 229.78247 78.141327 230.666518 79.025375 
C 231.550565 79.909423 232.74976 80.406146 233.999992 80.406146 
z
" clip-path="url(#p7af9cfc625)" style="fill: #87ceeb; fill-opacity: 0.7; stroke: #000000; stroke-opacity: 0.7; stroke-width: 0.266689"/>
    <path d="M 103.565098 126.479786 
C 103.62511 126.479786 103.682671 126.455943 103.725105 126.413509 
C 103.767539 126.371075 103.791382 126.313514 103.791382 126.253503 
C 103.791382 126.193491 103.767539 126.13593 103.725105 126.093496 
C 103.682671 126.051062 103.62511 126.027219 103.565098 126.027219 
C 103.505087 126.027219 103.447526 126.051062 103.405092 126.093496 
C 103.362658 126.13593 103.338815 126.193491 103.338815 126.253503 
C 103.338815 126.313514 103.362658 126.371075 103.405092 126.413509 
C 103.447526 126.455943 103.505087 126.479786 103.565098 126.479786 
z
" clip-path="url(#p7af9cfc625)" style="fill: #87ceeb; fill-opacity: 0.7; stroke: #000000; stroke-opacity: 0.7; stroke-width: 0.000614"/>
    <path d="M 49.53719 262.855982 
C 53.392173 262.855982 57.089786 261.32438 59.815671 258.598496 
C 62.541555 255.872611 64.073157 252.174998 64.073157 248.320015 
C 64.073157 244.465032 62.541555 240.76742 59.815671 238.041535 
C 57.089786 235.31565 53.392173 233.784049 49.53719 233.784049 
C 45.682207 233.784049 41.984594 235.31565 39.25871 238.041535 
C 36.532825 240.76742 35.001224 244.465032 35.001224 248.320015 
C 35.001224 252.174998 36.532825 255.872611 39.25871 258.598496 
C 41.984594 261.32438 45.682207 262.855982 49.53719 262.855982 
z
" clip-path="url(#p7af9cfc625)" style="fill: #87ceeb; fill-opacity: 0.7; stroke: #000000; stroke-opacity: 0.7; stroke-width: 2.535532"/>
    <path d="M 103.565087 376.333835 
C 105.142343 376.333835 106.65521 375.707185 107.770497 374.591897 
C 108.885785 373.476609 109.512435 371.963742 109.512435 370.386487 
C 109.512435 368.809232 108.885785 367.296365 107.770497 366.181077 
C 106.65521 365.065789 105.142343 364.439139 103.565087 364.439139 
C 101.987832 364.439139 100.474965 365.065789 99.359678 366.181077 
C 98.24439 367.296365 97.61774 368.809232 97.61774 370.386487 
C 97.61774 371.963742 98.24439 373.476609 99.359678 374.591897 
C 100.474965 375.707185 101.987832 376.333835 103.565087 376.333835 
z
" clip-path="url(#p7af9cfc625)" style="fill: #87ceeb; fill-opacity: 0.7; stroke: #000000; stroke-opacity: 0.7; stroke-width: 0.424451"/>
    <path d="M 234.000002 430.463972 
C 236.523641 430.463972 238.944258 429.46132 240.72874 427.676837 
C 242.513223 425.892355 243.515875 423.471738 243.515875 420.948099 
C 243.515875 418.42446 242.513223 416.003843 240.72874 414.219361 
C 238.944258 412.434879 236.523641 411.432226 234.000002 411.432226 
C 231.476363 411.432226 229.055746 412.434879 227.271264 414.219361 
C 225.486782 416.003843 224.484129 418.42446 224.484129 420.948099 
C 224.484129 423.471738 225.486782 425.892355 227.271264 427.676837 
C 229.055746 429.46132 231.476363 430.463972 234.000002 430.463972 
z
" clip-path="url(#p7af9cfc625)" style="fill: #87ceeb; fill-opacity: 0.7; stroke: #000000; stroke-opacity: 0.7; stroke-width: 1.086622"/>
    <path d="M 364.43488 385.325574 
C 368.396763 385.325574 372.196912 383.751501 374.998387 380.950026 
C 377.799862 378.148551 379.373935 374.348402 379.373935 370.386518 
C 379.373935 366.424634 377.799862 362.624485 374.998387 359.823011 
C 372.196912 357.021536 368.396763 355.447462 364.43488 355.447462 
C 360.472996 355.447462 356.672847 357.021536 353.871372 359.823011 
C 351.069897 362.624485 349.495824 366.424634 349.495824 370.386518 
C 349.495824 374.348402 351.069897 378.148551 353.871372 380.950026 
C 356.672847 383.751501 360.472996 385.325574 364.43488 385.325574 
z
" clip-path="url(#p7af9cfc625)" style="fill: #87ceeb; fill-opacity: 0.7; stroke: #000000; stroke-opacity: 0.7; stroke-width: 2.678105"/>
   </g>
   <g id="text_1">
    <g clip-path="url(#p7af9cfc625)">
     <!-- Geopolitics -->
     <g transform="translate(386.281404 252.386563) scale(0.14 -0.14)">
      <defs>
       <path id="STSongti-SC-Black-47" d="M 4800 2054 
L 4506 2010 
Q 4397 1990 4355 1955 
Q 4314 1920 4314 1830 
L 4314 1120 
Q 4314 941 4304 838 
Q 4294 736 4259 675 
Q 4224 614 4147 579 
Q 4070 544 3936 493 
Q 3808 442 3645 403 
Q 3482 365 3296 339 
Q 3110 314 2915 298 
Q 2720 282 2541 282 
Q 2067 282 1638 413 
Q 1210 544 890 800 
Q 570 1056 381 1430 
Q 192 1805 192 2291 
Q 192 2854 400 3260 
Q 608 3667 953 3932 
Q 1299 4198 1753 4323 
Q 2208 4448 2707 4448 
Q 3558 4448 4128 4141 
L 4179 3066 
L 4026 3046 
Q 3930 3283 3805 3491 
Q 3680 3699 3520 3856 
Q 3360 4013 3155 4102 
Q 2950 4192 2688 4192 
Q 2285 4192 1987 4057 
Q 1690 3923 1498 3683 
Q 1306 3443 1210 3107 
Q 1114 2771 1114 2368 
Q 1114 1990 1216 1654 
Q 1318 1318 1520 1065 
Q 1722 813 2019 665 
Q 2317 518 2707 518 
Q 2944 518 3101 569 
Q 3258 621 3350 710 
Q 3443 800 3478 915 
Q 3514 1030 3514 1158 
L 3514 1830 
Q 3514 1933 3466 1965 
Q 3418 1997 3315 2010 
L 2854 2054 
L 2854 2253 
Q 3354 2227 3827 2227 
Q 4301 2227 4800 2253 
L 4800 2054 
z
" transform="scale(0.015625)"/>
       <path id="STSongti-SC-Black-65" d="M 2515 1888 
L 928 1888 
Q 915 1824 912 1811 
Q 909 1798 909 1734 
Q 909 1530 966 1360 
Q 1024 1190 1129 1065 
Q 1235 941 1385 870 
Q 1536 800 1715 800 
Q 1939 800 2128 861 
Q 2317 922 2528 1126 
L 2554 1030 
Q 2477 883 2377 748 
Q 2278 614 2137 512 
Q 1997 410 1808 346 
Q 1619 282 1363 282 
Q 1094 282 870 374 
Q 646 467 489 640 
Q 333 813 246 1056 
Q 160 1299 160 1600 
Q 160 1901 253 2147 
Q 346 2394 515 2570 
Q 685 2746 928 2842 
Q 1171 2938 1472 2938 
Q 1747 2938 1939 2854 
Q 2131 2771 2256 2627 
Q 2381 2483 2441 2291 
Q 2502 2099 2515 1888 
z
M 960 2125 
L 1562 2125 
Q 1734 2125 1734 2291 
Q 1734 2477 1676 2608 
Q 1619 2739 1446 2739 
Q 1088 2739 960 2125 
z
" transform="scale(0.015625)"/>
       <path id="STSongti-SC-Black-6f" d="M 1504 282 
Q 1165 282 915 381 
Q 666 480 496 659 
Q 326 838 243 1078 
Q 160 1318 160 1606 
Q 160 1901 243 2147 
Q 326 2394 496 2570 
Q 666 2746 928 2845 
Q 1190 2944 1555 2944 
Q 1920 2944 2179 2841 
Q 2438 2739 2608 2556 
Q 2778 2374 2858 2128 
Q 2938 1882 2938 1594 
Q 2938 1299 2838 1059 
Q 2739 819 2556 646 
Q 2374 474 2105 378 
Q 1837 282 1504 282 
z
M 966 1562 
Q 966 1082 1110 803 
Q 1254 525 1536 525 
Q 1811 525 1964 819 
Q 2118 1114 2118 1600 
Q 2118 2086 1974 2390 
Q 1830 2694 1536 2694 
Q 1248 2694 1107 2409 
Q 966 2125 966 1562 
z
" transform="scale(0.015625)"/>
       <path id="STSongti-SC-Black-70" d="M 1254 2598 
Q 1357 2682 1443 2746 
Q 1530 2810 1622 2854 
Q 1715 2899 1827 2921 
Q 1939 2944 2086 2944 
Q 2586 2944 2874 2621 
Q 3162 2298 3162 1715 
Q 3162 1389 3056 1133 
Q 2950 877 2777 701 
Q 2605 525 2377 432 
Q 2150 339 1907 339 
Q 1722 339 1552 377 
Q 1382 416 1254 525 
L 1254 -448 
Q 1254 -538 1308 -582 
Q 1363 -627 1523 -653 
L 1907 -717 
L 1907 -890 
Q 1779 -877 1600 -870 
Q 1421 -864 1139 -864 
L 966 -864 
Q 864 -864 739 -867 
Q 614 -870 492 -873 
Q 371 -877 265 -880 
Q 160 -883 96 -890 
L 96 -723 
L 365 -672 
Q 461 -653 489 -611 
Q 518 -570 518 -448 
L 518 2381 
Q 518 2618 435 2624 
L 122 2675 
L 141 2765 
Q 320 2810 470 2861 
Q 621 2912 691 2944 
Q 736 2963 806 2998 
Q 877 3034 947 3075 
Q 1018 3117 1075 3155 
Q 1133 3194 1158 3226 
L 1254 3226 
L 1254 2598 
z
M 1254 2342 
L 1254 1158 
Q 1254 928 1376 777 
Q 1498 627 1779 627 
Q 2074 627 2230 880 
Q 2387 1133 2387 1574 
Q 2387 1786 2336 1968 
Q 2285 2150 2192 2284 
Q 2099 2419 1980 2496 
Q 1862 2573 1728 2573 
Q 1574 2573 1465 2509 
Q 1357 2445 1254 2342 
z
" transform="scale(0.015625)"/>
       <path id="STSongti-SC-Black-6c" d="M 1632 365 
Q 1478 371 1276 377 
Q 1075 384 864 384 
Q 653 384 451 377 
Q 250 371 96 365 
L 96 531 
L 390 608 
Q 474 627 506 659 
Q 538 691 538 787 
L 538 3910 
Q 538 4045 461 4109 
Q 384 4173 122 4250 
L 122 4397 
Q 186 4410 307 4429 
Q 429 4448 576 4473 
Q 723 4499 870 4534 
Q 1018 4570 1126 4608 
L 1274 4608 
L 1274 800 
Q 1274 672 1299 643 
Q 1325 614 1421 589 
L 1632 531 
L 1632 365 
z
" transform="scale(0.015625)"/>
       <path id="STSongti-SC-Black-69" d="M 986 4320 
Q 1152 4320 1270 4195 
Q 1389 4070 1389 3904 
Q 1389 3757 1270 3635 
Q 1152 3514 979 3514 
Q 813 3514 701 3626 
Q 589 3738 589 3904 
Q 589 4070 704 4195 
Q 819 4320 986 4320 
z
M 1632 358 
Q 1530 371 1325 377 
Q 1120 384 864 384 
Q 608 384 403 377 
Q 198 371 96 358 
L 96 525 
L 339 589 
Q 538 627 538 826 
L 538 1978 
Q 538 2131 461 2201 
Q 384 2272 154 2323 
L 154 2477 
Q 262 2502 403 2550 
Q 544 2598 678 2659 
Q 813 2720 928 2793 
Q 1043 2867 1107 2944 
Q 1152 2944 1190 2941 
Q 1229 2938 1274 2938 
L 1274 806 
Q 1274 710 1302 662 
Q 1331 614 1414 595 
L 1632 525 
L 1632 358 
z
" transform="scale(0.015625)"/>
       <path id="STSongti-SC-Black-74" d="M 1114 3469 
L 1254 3469 
Q 1254 3296 1257 3126 
Q 1261 2957 1261 2784 
L 2061 2803 
L 2061 2502 
L 1261 2477 
L 1261 1325 
Q 1261 1043 1331 908 
Q 1402 774 1626 774 
Q 1722 774 1837 796 
Q 1952 819 2086 934 
L 2144 845 
Q 2099 755 2022 656 
Q 1946 557 1834 473 
Q 1722 390 1581 336 
Q 1440 282 1261 282 
Q 902 282 720 464 
Q 538 646 538 1088 
L 538 2464 
Q 448 2464 365 2461 
Q 282 2458 192 2458 
Q 102 2458 99 2541 
Q 96 2624 186 2662 
Q 326 2720 444 2784 
Q 563 2848 640 2912 
Q 678 2944 745 2998 
Q 813 3053 883 3123 
Q 954 3194 1014 3283 
Q 1075 3373 1114 3469 
z
" transform="scale(0.015625)"/>
       <path id="STSongti-SC-Black-63" d="M 2464 986 
Q 2394 870 2301 745 
Q 2208 621 2077 518 
Q 1946 416 1773 349 
Q 1600 282 1382 282 
Q 819 282 489 624 
Q 160 966 160 1562 
Q 160 1869 269 2121 
Q 378 2374 570 2556 
Q 762 2739 1021 2838 
Q 1280 2938 1587 2938 
Q 1933 2938 2157 2829 
Q 2381 2720 2381 2515 
Q 2381 2387 2313 2316 
Q 2246 2246 2144 2246 
Q 2048 2246 1958 2313 
Q 1869 2381 1773 2457 
Q 1677 2534 1577 2601 
Q 1478 2669 1376 2669 
Q 1235 2669 1139 2582 
Q 1043 2496 982 2361 
Q 922 2227 896 2064 
Q 870 1901 870 1747 
Q 870 1523 928 1360 
Q 986 1197 1088 1088 
Q 1190 979 1324 918 
Q 1459 858 1606 838 
Q 1837 800 2045 880 
Q 2253 960 2419 1107 
L 2464 986 
z
" transform="scale(0.015625)"/>
       <path id="STSongti-SC-Black-73" d="M 1792 2093 
Q 1773 2182 1737 2288 
Q 1702 2394 1635 2483 
Q 1568 2573 1459 2633 
Q 1350 2694 1184 2694 
Q 1107 2694 1033 2681 
Q 960 2669 896 2637 
Q 832 2605 793 2547 
Q 755 2490 755 2400 
Q 755 2304 806 2237 
Q 858 2170 950 2122 
Q 1043 2074 1174 2035 
Q 1306 1997 1466 1952 
Q 1677 1894 1811 1817 
Q 1946 1741 2022 1645 
Q 2099 1549 2128 1437 
Q 2157 1325 2157 1197 
Q 2157 941 2061 765 
Q 1965 589 1805 483 
Q 1645 378 1437 330 
Q 1229 282 1011 282 
Q 781 282 573 323 
Q 365 365 218 448 
L 154 1235 
L 314 1235 
Q 403 890 585 710 
Q 768 531 1082 531 
Q 1267 531 1417 620 
Q 1568 710 1568 915 
Q 1568 1101 1437 1187 
Q 1306 1274 986 1350 
Q 518 1459 332 1648 
Q 147 1837 147 2170 
Q 147 2362 240 2506 
Q 333 2650 483 2746 
Q 634 2842 822 2890 
Q 1011 2938 1210 2938 
Q 1408 2938 1600 2899 
Q 1792 2861 1920 2784 
L 1958 2093 
L 1792 2093 
z
" transform="scale(0.015625)"/>
      </defs>
      <use xlink:href="#STSongti-SC-Black-47"/>
      <use xlink:href="#STSongti-SC-Black-65" x="76.999985"/>
      <use xlink:href="#STSongti-SC-Black-6f" x="119.399979"/>
      <use xlink:href="#STSongti-SC-Black-70" x="167.799973"/>
      <use xlink:href="#STSongti-SC-Black-6f" x="219.699966"/>
      <use xlink:href="#STSongti-SC-Black-6c" x="268.09996"/>
      <use xlink:href="#STSongti-SC-Black-69" x="295.099945"/>
      <use xlink:href="#STSongti-SC-Black-74" x="322.09993"/>
      <use xlink:href="#STSongti-SC-Black-69" x="356.299927"/>
      <use xlink:href="#STSongti-SC-Black-63" x="383.299911"/>
      <use xlink:href="#STSongti-SC-Black-73" x="423.799896"/>
     </g>
    </g>
   </g>
   <g id="text_2">
    <g clip-path="url(#p7af9cfc625)">
     <!-- Climate Policy -->
     <g transform="translate(322.853808 130.313503) scale(0.14 -0.14)">
      <defs>
       <path id="STSongti-SC-Black-43" d="M 3910 1459 
Q 3891 1363 3872 1232 
Q 3853 1101 3827 960 
Q 3802 819 3773 684 
Q 3744 550 3712 442 
Q 3507 358 3200 320 
Q 2893 282 2445 282 
Q 1997 282 1590 416 
Q 1184 550 873 806 
Q 563 1062 377 1436 
Q 192 1811 192 2298 
Q 192 2784 358 3181 
Q 525 3578 816 3859 
Q 1107 4141 1500 4294 
Q 1894 4448 2349 4448 
Q 2720 4448 2989 4406 
Q 3258 4365 3430 4314 
Q 3635 4256 3770 4186 
Q 3776 4109 3782 3971 
Q 3789 3834 3792 3680 
Q 3795 3526 3792 3385 
Q 3789 3245 3789 3162 
L 3603 3162 
Q 3584 3347 3517 3529 
Q 3450 3712 3318 3859 
Q 3187 4006 2985 4096 
Q 2784 4186 2496 4186 
Q 2176 4186 1917 4083 
Q 1658 3981 1475 3769 
Q 1293 3558 1190 3228 
Q 1088 2899 1088 2445 
Q 1088 1933 1206 1574 
Q 1325 1216 1526 989 
Q 1728 762 2003 656 
Q 2278 550 2598 550 
Q 2816 550 2989 614 
Q 3162 678 3299 793 
Q 3437 909 3549 1078 
Q 3661 1248 3763 1459 
L 3910 1459 
z
" transform="scale(0.015625)"/>
       <path id="STSongti-SC-Black-6d" d="M 3379 531 
L 3565 570 
Q 3718 602 3769 650 
Q 3821 698 3821 838 
L 3821 1920 
Q 3821 2022 3808 2128 
Q 3795 2234 3756 2320 
Q 3718 2406 3644 2457 
Q 3571 2509 3443 2509 
Q 3283 2509 3136 2371 
Q 2989 2234 2893 2054 
L 2893 890 
Q 2893 755 2918 684 
Q 2944 614 3059 589 
L 3258 525 
L 3258 358 
Q 2931 384 2553 384 
Q 2176 384 1824 358 
L 1824 525 
L 1952 563 
Q 2061 595 2109 662 
Q 2157 730 2157 858 
L 2157 1914 
Q 2157 2016 2137 2125 
Q 2118 2234 2076 2317 
Q 2035 2400 1961 2454 
Q 1888 2509 1773 2509 
Q 1664 2509 1577 2467 
Q 1491 2426 1424 2358 
Q 1357 2291 1309 2211 
Q 1261 2131 1229 2061 
L 1229 883 
Q 1229 723 1270 665 
Q 1312 608 1402 589 
L 1664 525 
L 1664 358 
Q 1504 371 1302 377 
Q 1101 384 889 384 
Q 678 384 473 377 
Q 269 371 96 358 
L 96 525 
L 256 563 
Q 397 595 445 652 
Q 493 710 493 845 
L 493 2163 
Q 493 2240 486 2294 
Q 480 2349 448 2384 
Q 416 2419 352 2438 
Q 288 2458 173 2477 
L 173 2579 
Q 256 2598 384 2640 
Q 512 2682 649 2739 
Q 787 2797 912 2877 
Q 1037 2957 1107 3053 
L 1229 3053 
L 1229 2438 
Q 1491 2694 1670 2812 
Q 1850 2931 2074 2938 
Q 2394 2944 2589 2829 
Q 2784 2714 2874 2394 
Q 2976 2509 3065 2611 
Q 3155 2714 3254 2784 
Q 3354 2854 3475 2896 
Q 3597 2938 3763 2938 
Q 3955 2938 4105 2899 
Q 4256 2861 4355 2758 
Q 4454 2656 4505 2486 
Q 4557 2317 4557 2061 
L 4557 832 
Q 4557 595 4659 576 
L 4883 525 
L 4883 358 
Q 4723 371 4515 377 
Q 4307 384 4096 384 
Q 3885 384 3696 377 
Q 3507 371 3379 365 
L 3379 531 
z
" transform="scale(0.015625)"/>
       <path id="STSongti-SC-Black-61" d="M 1152 288 
Q 890 288 701 381 
Q 512 474 393 634 
Q 275 794 217 1011 
Q 160 1229 160 1478 
Q 160 1818 262 2080 
Q 365 2342 537 2521 
Q 710 2701 940 2793 
Q 1171 2886 1427 2886 
Q 1606 2886 1740 2860 
Q 1875 2835 1965 2803 
Q 2074 2771 2144 2726 
L 2566 2963 
L 2624 2944 
L 2624 973 
Q 2624 717 2842 730 
Q 2893 730 2921 746 
Q 2950 762 2976 774 
Q 3002 794 3021 813 
L 3059 723 
Q 3008 602 2925 506 
Q 2854 422 2736 355 
Q 2618 288 2445 288 
Q 2163 288 2044 457 
Q 1926 627 1926 870 
L 1926 1024 
Q 1894 883 1833 752 
Q 1773 621 1683 518 
Q 1594 416 1462 352 
Q 1331 288 1152 288 
z
M 1926 1760 
Q 1926 1894 1913 2041 
Q 1901 2189 1856 2313 
Q 1811 2438 1718 2521 
Q 1626 2605 1466 2605 
Q 1376 2605 1277 2557 
Q 1178 2509 1094 2400 
Q 1011 2291 956 2102 
Q 902 1914 902 1638 
Q 902 1446 931 1273 
Q 960 1101 1024 973 
Q 1088 845 1181 771 
Q 1274 698 1402 698 
Q 1530 698 1626 781 
Q 1722 864 1789 1001 
Q 1856 1139 1891 1318 
Q 1926 1498 1926 1690 
L 1926 1760 
z
" transform="scale(0.015625)"/>
       <path id="STSongti-SC-Black-20" transform="scale(0.015625)"/>
       <path id="STSongti-SC-Black-50" d="M 160 4384 
Q 474 4384 685 4387 
Q 896 4390 1005 4397 
L 1933 4448 
Q 2054 4454 2102 4454 
Q 2150 4454 2176 4454 
Q 2477 4454 2739 4387 
Q 3002 4320 3194 4176 
Q 3386 4032 3498 3808 
Q 3610 3584 3610 3277 
Q 3610 2995 3498 2784 
Q 3386 2573 3203 2429 
Q 3021 2285 2787 2214 
Q 2554 2144 2317 2144 
Q 2131 2144 1990 2195 
Q 1850 2246 1728 2368 
L 1741 2426 
Q 1824 2394 1920 2384 
Q 2016 2374 2086 2374 
Q 2246 2374 2377 2419 
Q 2509 2464 2605 2563 
Q 2701 2662 2755 2828 
Q 2810 2995 2810 3245 
Q 2810 3667 2598 3932 
Q 2387 4198 1952 4198 
Q 1862 4198 1801 4195 
Q 1741 4192 1690 4186 
Q 1638 4179 1603 4169 
Q 1568 4160 1536 4147 
L 1536 864 
Q 1536 768 1577 701 
Q 1619 634 1760 608 
L 2144 538 
L 2144 358 
Q 1875 371 1635 377 
Q 1395 384 1222 384 
Q 1024 384 816 377 
Q 608 371 288 365 
L 288 544 
L 646 614 
Q 742 634 774 685 
Q 806 736 806 858 
L 806 3744 
Q 806 3987 656 4070 
Q 506 4154 160 4192 
L 160 4384 
z
" transform="scale(0.015625)"/>
       <path id="STSongti-SC-Black-79" d="M 1376 -352 
Q 1261 -634 1040 -765 
Q 819 -896 570 -896 
Q 499 -896 428 -880 
Q 358 -864 307 -826 
Q 262 -794 233 -746 
Q 205 -698 205 -634 
Q 205 -454 301 -400 
Q 397 -346 531 -346 
Q 666 -346 806 -381 
Q 947 -416 1018 -416 
Q 1050 -416 1094 -384 
Q 1139 -352 1184 -297 
Q 1229 -243 1257 -166 
Q 1286 -90 1286 0 
Q 1286 90 1254 205 
Q 1222 314 1180 422 
Q 1139 531 1101 621 
L 262 2464 
Q 198 2611 96 2650 
L -32 2694 
L -32 2854 
Q 781 2784 1318 2854 
L 1318 2694 
Q 1146 2694 1133 2662 
Q 1120 2630 1146 2566 
L 1728 1088 
L 2234 2336 
Q 2266 2426 2262 2522 
Q 2259 2618 2150 2643 
L 1792 2726 
L 1792 2854 
Q 2355 2790 2970 2854 
L 2970 2726 
L 2765 2675 
Q 2714 2662 2678 2640 
Q 2643 2618 2611 2576 
Q 2579 2534 2540 2460 
Q 2502 2387 2458 2272 
L 1376 -352 
z
" transform="scale(0.015625)"/>
      </defs>
      <use xlink:href="#STSongti-SC-Black-43"/>
      <use xlink:href="#STSongti-SC-Black-6c" x="63.599991"/>
      <use xlink:href="#STSongti-SC-Black-69" x="90.599976"/>
      <use xlink:href="#STSongti-SC-Black-6d" x="117.59996"/>
      <use xlink:href="#STSongti-SC-Black-61" x="195.399948"/>
      <use xlink:href="#STSongti-SC-Black-74" x="244.699936"/>
      <use xlink:href="#STSongti-SC-Black-65" x="278.899933"/>
      <use xlink:href="#STSongti-SC-Black-20" x="321.299927"/>
      <use xlink:href="#STSongti-SC-Black-50" x="346.299911"/>
      <use xlink:href="#STSongti-SC-Black-6f" x="405.199905"/>
      <use xlink:href="#STSongti-SC-Black-6c" x="453.599899"/>
      <use xlink:href="#STSongti-SC-Black-69" x="480.599884"/>
      <use xlink:href="#STSongti-SC-Black-63" x="507.599869"/>
      <use xlink:href="#STSongti-SC-Black-79" x="548.099854"/>
     </g>
    </g>
   </g>
   <g id="text_3">
    <g clip-path="url(#p7af9cfc625)">
     <!-- New Energy -->
     <g transform="translate(198.914679 79.745338) scale(0.14 -0.14)">
      <defs>
       <path id="STSongti-SC-Black-4e" d="M 1114 902 
Q 1114 742 1152 688 
Q 1190 634 1312 621 
L 1818 557 
L 1818 365 
Q 1434 384 1050 384 
Q 666 384 160 365 
L 160 557 
L 512 621 
Q 730 659 790 710 
Q 851 762 851 902 
L 851 3482 
Q 851 3776 787 3920 
Q 723 4064 544 4096 
L 166 4154 
L 166 4384 
L 1082 4384 
Q 1229 4384 1321 4384 
Q 1414 4384 1481 4371 
Q 1549 4358 1600 4323 
Q 1651 4288 1722 4218 
L 4096 1709 
L 4096 3802 
Q 4096 3974 4041 4048 
Q 3987 4122 3866 4134 
L 3386 4198 
L 3386 4403 
Q 3565 4384 4077 4384 
Q 4333 4384 4560 4387 
Q 4787 4390 4877 4403 
L 4877 4198 
L 4499 4173 
Q 4390 4160 4368 4067 
Q 4346 3974 4346 3802 
L 4346 301 
L 4192 301 
L 1114 3578 
L 1114 902 
z
" transform="scale(0.015625)"/>
       <path id="STSongti-SC-Black-77" d="M -32 2842 
Q 109 2822 563 2822 
Q 1024 2822 1216 2842 
L 1216 2688 
Q 1146 2688 1107 2653 
Q 1069 2618 1101 2541 
L 1683 1120 
L 2048 1856 
L 1843 2355 
Q 1773 2528 1721 2579 
Q 1670 2630 1613 2643 
L 1440 2688 
L 1440 2842 
Q 1530 2829 1693 2825 
Q 1856 2822 2125 2822 
Q 2643 2822 2810 2842 
L 2810 2688 
L 2720 2675 
Q 2470 2637 2541 2490 
L 3104 1158 
L 3584 2240 
Q 3642 2368 3587 2493 
Q 3533 2618 3398 2643 
L 3136 2688 
L 3136 2842 
Q 3277 2822 3674 2822 
Q 3878 2822 4044 2825 
Q 4211 2829 4301 2842 
L 4301 2688 
L 4141 2656 
Q 4038 2637 3958 2541 
Q 3878 2445 3814 2298 
L 2906 237 
L 2714 237 
L 2144 1613 
L 1478 237 
L 1293 237 
L 282 2477 
Q 205 2650 38 2669 
L -32 2688 
L -32 2842 
z
" transform="scale(0.015625)"/>
       <path id="STSongti-SC-Black-45" d="M 4128 1613 
Q 4090 1466 4064 1296 
Q 4038 1126 4019 960 
Q 4000 794 3987 637 
Q 3974 480 3968 365 
Q 3565 378 3133 381 
Q 2701 384 2157 384 
Q 1613 384 1088 381 
Q 563 378 160 365 
L 160 538 
L 602 570 
Q 710 582 752 614 
Q 794 646 794 794 
L 794 3885 
Q 794 4038 758 4102 
Q 723 4166 634 4179 
L 186 4224 
L 186 4403 
Q 448 4390 941 4387 
Q 1434 4384 2042 4384 
Q 2650 4384 3046 4387 
Q 3443 4390 3699 4403 
Q 3686 4307 3683 4169 
Q 3680 4032 3680 3888 
Q 3680 3744 3683 3606 
Q 3686 3469 3693 3366 
L 3610 3366 
Q 3546 3603 3478 3747 
Q 3411 3891 3331 3971 
Q 3251 4051 3158 4080 
Q 3066 4109 2950 4109 
L 1798 4109 
Q 1690 4109 1651 4048 
Q 1613 3987 1613 3840 
L 1613 2534 
L 2598 2534 
Q 2733 2534 2832 2572 
Q 2931 2611 2970 2726 
L 3117 3155 
L 3296 3155 
Q 3258 2394 3296 1619 
L 3168 1619 
L 2963 2054 
Q 2899 2189 2758 2246 
Q 2618 2304 2451 2304 
L 1613 2304 
L 1613 915 
Q 1613 774 1664 720 
Q 1715 666 1882 666 
L 2970 666 
Q 3110 666 3238 704 
Q 3366 742 3494 844 
Q 3622 947 3747 1132 
Q 3872 1318 4000 1613 
L 4128 1613 
z
" transform="scale(0.015625)"/>
       <path id="STSongti-SC-Black-6e" d="M 3296 365 
Q 2963 384 2556 384 
Q 2150 384 1818 365 
L 1818 525 
L 2042 576 
Q 2182 595 2182 826 
L 2182 1901 
Q 2182 2042 2172 2147 
Q 2163 2253 2128 2326 
Q 2093 2400 2019 2435 
Q 1946 2470 1818 2470 
Q 1670 2470 1507 2377 
Q 1344 2285 1235 2157 
L 1235 755 
Q 1235 653 1389 614 
L 1574 525 
L 1574 365 
Q 1517 371 1462 374 
Q 1408 378 1344 381 
Q 1280 384 1203 384 
Q 1126 384 1011 384 
L 813 384 
Q 608 384 400 381 
Q 192 378 96 365 
L 96 525 
L 371 589 
Q 435 602 467 646 
Q 499 691 499 781 
L 499 2042 
Q 499 2240 419 2310 
Q 339 2381 134 2413 
L 134 2534 
Q 237 2560 374 2598 
Q 512 2637 646 2697 
Q 781 2758 896 2844 
Q 1011 2931 1069 3053 
L 1235 3053 
L 1235 2432 
Q 1427 2669 1651 2803 
Q 1875 2938 2099 2938 
Q 2470 2938 2694 2720 
Q 2918 2502 2918 2061 
L 2918 845 
Q 2918 717 2950 659 
Q 2982 602 3078 576 
L 3296 525 
L 3296 365 
z
" transform="scale(0.015625)"/>
       <path id="STSongti-SC-Black-72" d="M 109 358 
L 109 461 
L 301 518 
Q 429 557 464 617 
Q 499 678 499 845 
L 499 2074 
Q 499 2202 448 2266 
Q 397 2330 205 2355 
L 96 2368 
L 96 2490 
Q 218 2522 362 2576 
Q 506 2630 643 2704 
Q 781 2778 899 2874 
Q 1018 2970 1094 3085 
L 1210 3085 
Q 1210 2899 1216 2739 
Q 1222 2579 1235 2368 
Q 1286 2477 1334 2560 
Q 1382 2643 1485 2765 
Q 1581 2880 1683 2909 
Q 1786 2938 1869 2938 
Q 2029 2938 2150 2842 
Q 2272 2746 2272 2522 
Q 2272 2317 2182 2192 
Q 2093 2067 1914 2067 
Q 1824 2067 1763 2118 
Q 1702 2170 1660 2227 
Q 1619 2285 1580 2336 
Q 1542 2387 1504 2387 
Q 1414 2387 1347 2265 
Q 1280 2144 1254 1965 
Q 1242 1888 1235 1827 
Q 1229 1766 1235 1722 
L 1235 832 
Q 1235 685 1292 633 
Q 1350 582 1523 531 
L 1734 467 
L 1734 365 
Q 1594 378 1414 381 
Q 1235 384 1075 384 
L 928 384 
Q 717 384 505 377 
Q 294 371 109 358 
z
" transform="scale(0.015625)"/>
       <path id="STSongti-SC-Black-67" d="M 1152 403 
Q 890 403 701 489 
Q 512 576 393 726 
Q 275 877 217 1088 
Q 160 1299 160 1549 
Q 160 1888 262 2137 
Q 365 2387 537 2553 
Q 710 2720 940 2803 
Q 1171 2886 1427 2886 
Q 1606 2886 1740 2860 
Q 1875 2835 1965 2803 
Q 2074 2771 2144 2726 
L 2566 2963 
L 2624 2944 
L 2624 518 
Q 2624 275 2525 67 
Q 2426 -141 2253 -294 
Q 2080 -448 1843 -537 
Q 1606 -627 1325 -627 
Q 973 -627 761 -579 
Q 550 -531 435 -454 
Q 320 -378 285 -285 
Q 250 -192 250 -96 
Q 250 38 336 112 
Q 422 186 557 186 
Q 691 186 761 144 
Q 832 102 867 38 
Q 902 -26 921 -99 
Q 941 -173 982 -237 
Q 1024 -301 1107 -342 
Q 1190 -384 1344 -384 
Q 1619 -384 1772 -192 
Q 1926 0 1926 435 
L 1926 1094 
Q 1894 960 1833 835 
Q 1773 710 1683 614 
Q 1594 518 1462 460 
Q 1331 403 1152 403 
z
M 1926 1760 
Q 1926 1894 1913 2041 
Q 1901 2189 1856 2313 
Q 1811 2438 1718 2521 
Q 1626 2605 1466 2605 
Q 1376 2605 1277 2569 
Q 1178 2534 1094 2435 
Q 1011 2336 956 2160 
Q 902 1984 902 1709 
Q 902 1318 1024 1065 
Q 1146 813 1402 813 
Q 1530 813 1626 886 
Q 1722 960 1789 1085 
Q 1856 1210 1891 1379 
Q 1926 1549 1926 1741 
L 1926 1760 
z
" transform="scale(0.015625)"/>
      </defs>
      <use xlink:href="#STSongti-SC-Black-4e"/>
      <use xlink:href="#STSongti-SC-Black-65" x="78.699982"/>
      <use xlink:href="#STSongti-SC-Black-77" x="121.099976"/>
      <use xlink:href="#STSongti-SC-Black-20" x="187.799973"/>
      <use xlink:href="#STSongti-SC-Black-45" x="212.799957"/>
      <use xlink:href="#STSongti-SC-Black-6e" x="279.799942"/>
      <use xlink:href="#STSongti-SC-Black-65" x="332.799927"/>
      <use xlink:href="#STSongti-SC-Black-72" x="375.199921"/>
      <use xlink:href="#STSongti-SC-Black-67" x="412.799911"/>
      <use xlink:href="#STSongti-SC-Black-79" x="455.299896"/>
     </g>
    </g>
   </g>
   <g id="text_4">
    <g clip-path="url(#p7af9cfc625)">
     <!-- Green Bond -->
     <g transform="translate(68.949005 130.320065) scale(0.14 -0.14)">
      <defs>
       <path id="STSongti-SC-Black-42" d="M 160 4173 
L 160 4365 
L 538 4384 
Q 1139 4416 1523 4432 
Q 1907 4448 2010 4448 
Q 2285 4448 2563 4406 
Q 2842 4365 3062 4262 
Q 3283 4160 3420 3984 
Q 3558 3808 3558 3539 
Q 3558 3386 3491 3248 
Q 3424 3110 3309 3001 
Q 3194 2893 3037 2813 
Q 2880 2733 2701 2694 
Q 2963 2656 3187 2582 
Q 3411 2509 3574 2381 
Q 3738 2253 3830 2061 
Q 3923 1869 3923 1594 
Q 3923 1325 3776 1101 
Q 3629 877 3376 717 
Q 3123 557 2790 467 
Q 2458 378 2086 378 
Q 1734 378 1388 381 
Q 1043 384 691 384 
L 173 384 
L 173 582 
L 493 659 
Q 608 691 662 755 
Q 717 819 717 1005 
L 717 3923 
Q 717 3974 713 4006 
Q 710 4038 681 4064 
Q 653 4090 595 4106 
Q 538 4122 429 4134 
L 160 4173 
z
M 1510 2714 
Q 1562 2701 1670 2697 
Q 1779 2694 1990 2694 
Q 2349 2694 2531 2905 
Q 2714 3117 2714 3520 
Q 2714 3686 2656 3811 
Q 2598 3936 2499 4022 
Q 2400 4109 2269 4153 
Q 2138 4198 1997 4198 
Q 1741 4198 1510 4141 
L 1510 2714 
z
M 1510 2432 
L 1510 1101 
Q 1510 858 1689 736 
Q 1869 614 2189 614 
Q 2573 614 2793 854 
Q 3014 1094 3014 1491 
Q 3014 1978 2758 2218 
Q 2502 2458 2003 2458 
Q 1894 2458 1766 2451 
Q 1638 2445 1510 2432 
z
" transform="scale(0.015625)"/>
       <path id="STSongti-SC-Black-64" d="M 2054 3872 
Q 2054 3994 2041 4067 
Q 2029 4141 1977 4189 
Q 1926 4237 1827 4275 
Q 1728 4314 1555 4358 
L 1555 4461 
Q 1658 4467 1808 4480 
Q 1958 4493 2112 4512 
Q 2266 4531 2406 4553 
Q 2547 4576 2630 4608 
L 2790 4608 
L 2790 883 
Q 2790 768 2800 704 
Q 2810 640 2854 611 
Q 2899 582 2985 576 
Q 3072 570 3226 563 
L 3226 397 
Q 3104 371 2941 348 
Q 2778 326 2608 307 
Q 2438 288 2291 272 
Q 2144 256 2054 250 
L 2054 672 
Q 1856 512 1667 397 
Q 1478 282 1216 282 
Q 998 282 806 339 
Q 614 397 461 582 
Q 307 768 233 998 
Q 160 1229 160 1498 
Q 160 1862 281 2134 
Q 403 2406 595 2585 
Q 787 2765 1024 2851 
Q 1261 2938 1491 2938 
Q 1696 2938 1830 2890 
Q 1965 2842 2054 2765 
L 2054 3872 
z
M 2054 877 
L 2054 1952 
Q 2054 2086 2035 2211 
Q 2016 2336 1965 2435 
Q 1914 2534 1814 2592 
Q 1715 2650 1555 2650 
Q 1414 2650 1305 2570 
Q 1197 2490 1120 2349 
Q 1043 2208 1001 2022 
Q 960 1837 960 1619 
Q 960 1222 1107 966 
Q 1254 710 1555 710 
Q 1754 710 1856 755 
Q 1958 800 2054 877 
z
" transform="scale(0.015625)"/>
      </defs>
      <use xlink:href="#STSongti-SC-Black-47"/>
      <use xlink:href="#STSongti-SC-Black-72" x="76.999985"/>
      <use xlink:href="#STSongti-SC-Black-65" x="114.599976"/>
      <use xlink:href="#STSongti-SC-Black-65" x="156.999969"/>
      <use xlink:href="#STSongti-SC-Black-6e" x="199.399963"/>
      <use xlink:href="#STSongti-SC-Black-20" x="252.399948"/>
      <use xlink:href="#STSongti-SC-Black-42" x="277.399933"/>
      <use xlink:href="#STSongti-SC-Black-6f" x="341.199921"/>
      <use xlink:href="#STSongti-SC-Black-6e" x="389.599915"/>
      <use xlink:href="#STSongti-SC-Black-64" x="442.599899"/>
     </g>
    </g>
   </g>
   <g id="text_5">
    <g clip-path="url(#p7af9cfc625)">
     <!-- Carbon Price -->
     <g transform="translate(12.08719 252.386578) scale(0.14 -0.14)">
      <defs>
       <path id="STSongti-SC-Black-62" d="M 96 4243 
L 115 4410 
L 1254 4608 
L 1254 2714 
Q 1440 2810 1609 2874 
Q 1779 2938 1978 2938 
Q 2547 2938 2848 2582 
Q 3149 2227 3149 1651 
Q 3149 979 2787 630 
Q 2426 282 1830 282 
Q 1677 282 1561 317 
Q 1446 352 1356 390 
Q 1267 429 1190 464 
Q 1114 499 1043 499 
Q 934 499 870 438 
Q 806 378 736 250 
L 512 250 
L 512 3718 
Q 512 3821 505 3894 
Q 499 3968 460 4025 
Q 422 4083 339 4134 
Q 256 4186 96 4243 
z
M 1254 1152 
Q 1254 864 1369 742 
Q 1485 621 1754 621 
Q 1894 621 2009 697 
Q 2125 774 2201 902 
Q 2278 1030 2320 1193 
Q 2362 1357 2362 1530 
Q 2362 1741 2320 1933 
Q 2278 2125 2192 2275 
Q 2106 2426 1965 2512 
Q 1824 2598 1632 2598 
Q 1478 2598 1366 2515 
Q 1254 2432 1254 2342 
L 1254 1152 
z
" transform="scale(0.015625)"/>
      </defs>
      <use xlink:href="#STSongti-SC-Black-43"/>
      <use xlink:href="#STSongti-SC-Black-61" x="63.599991"/>
      <use xlink:href="#STSongti-SC-Black-72" x="112.899979"/>
      <use xlink:href="#STSongti-SC-Black-62" x="150.499969"/>
      <use xlink:href="#STSongti-SC-Black-6f" x="202.199966"/>
      <use xlink:href="#STSongti-SC-Black-6e" x="250.59996"/>
      <use xlink:href="#STSongti-SC-Black-20" x="303.599945"/>
      <use xlink:href="#STSongti-SC-Black-50" x="328.59993"/>
      <use xlink:href="#STSongti-SC-Black-72" x="387.499924"/>
      <use xlink:href="#STSongti-SC-Black-69" x="425.099915"/>
      <use xlink:href="#STSongti-SC-Black-63" x="452.099899"/>
      <use xlink:href="#STSongti-SC-Black-65" x="492.599884"/>
     </g>
    </g>
   </g>
   <g id="text_6">
    <g clip-path="url(#p7af9cfc625)">
     <!-- Crude Oil -->
     <g transform="translate(75.270869 374.45305) scale(0.14 -0.14)">
      <defs>
       <path id="STSongti-SC-Black-75" d="M 96 2822 
L 1248 2822 
L 1248 1293 
Q 1248 986 1353 858 
Q 1459 730 1645 730 
Q 1798 730 1910 778 
Q 2022 826 2150 934 
L 2150 2413 
Q 2150 2464 2144 2502 
Q 2138 2541 2096 2569 
Q 2054 2598 1958 2617 
Q 1862 2637 1690 2656 
L 1690 2822 
L 2886 2822 
L 2886 1005 
Q 2886 909 2892 845 
Q 2899 781 2934 745 
Q 2970 710 3050 697 
Q 3130 685 3277 678 
Q 3277 640 3280 598 
Q 3283 557 3283 518 
L 2150 288 
L 2150 774 
Q 2042 659 1946 566 
Q 1850 474 1747 410 
Q 1645 346 1520 314 
Q 1395 282 1229 282 
Q 832 282 672 518 
Q 512 755 512 1146 
L 512 2419 
Q 512 2477 499 2512 
Q 486 2547 441 2576 
Q 397 2605 317 2624 
Q 237 2643 96 2669 
L 96 2822 
z
" transform="scale(0.015625)"/>
       <path id="STSongti-SC-Black-4f" d="M 2458 294 
Q 1984 294 1571 438 
Q 1158 582 851 848 
Q 544 1114 368 1491 
Q 192 1869 192 2330 
Q 192 2803 374 3193 
Q 557 3584 870 3859 
Q 1184 4134 1603 4284 
Q 2022 4435 2496 4435 
Q 2976 4435 3382 4275 
Q 3789 4115 4089 3836 
Q 4390 3558 4560 3177 
Q 4730 2797 4730 2349 
Q 4730 1901 4566 1523 
Q 4403 1146 4105 874 
Q 3808 602 3389 448 
Q 2970 294 2458 294 
z
M 1120 2298 
Q 1120 1971 1213 1654 
Q 1306 1338 1485 1088 
Q 1664 838 1917 684 
Q 2170 531 2496 531 
Q 3123 531 3468 982 
Q 3814 1434 3814 2310 
Q 3814 2688 3731 3027 
Q 3648 3366 3478 3619 
Q 3309 3872 3053 4022 
Q 2797 4173 2458 4173 
Q 2112 4173 1859 4013 
Q 1606 3853 1443 3590 
Q 1280 3328 1200 2992 
Q 1120 2656 1120 2298 
z
" transform="scale(0.015625)"/>
      </defs>
      <use xlink:href="#STSongti-SC-Black-43"/>
      <use xlink:href="#STSongti-SC-Black-72" x="63.599991"/>
      <use xlink:href="#STSongti-SC-Black-75" x="101.199982"/>
      <use xlink:href="#STSongti-SC-Black-64" x="153.999969"/>
      <use xlink:href="#STSongti-SC-Black-65" x="205.899963"/>
      <use xlink:href="#STSongti-SC-Black-20" x="248.299957"/>
      <use xlink:href="#STSongti-SC-Black-4f" x="273.299942"/>
      <use xlink:href="#STSongti-SC-Black-69" x="350.199936"/>
      <use xlink:href="#STSongti-SC-Black-6c" x="377.199921"/>
     </g>
    </g>
   </g>
   <g id="text_7">
    <g clip-path="url(#p7af9cfc625)">
     <!-- Natural Gas -->
     <g transform="translate(197.87344 425.014662) scale(0.14 -0.14)">
      <use xlink:href="#STSongti-SC-Black-4e"/>
      <use xlink:href="#STSongti-SC-Black-61" x="78.699982"/>
      <use xlink:href="#STSongti-SC-Black-74" x="127.999969"/>
      <use xlink:href="#STSongti-SC-Black-75" x="162.199966"/>
      <use xlink:href="#STSongti-SC-Black-72" x="214.999954"/>
      <use xlink:href="#STSongti-SC-Black-61" x="252.599945"/>
      <use xlink:href="#STSongti-SC-Black-6c" x="301.899933"/>
      <use xlink:href="#STSongti-SC-Black-20" x="328.899918"/>
      <use xlink:href="#STSongti-SC-Black-47" x="353.899902"/>
      <use xlink:href="#STSongti-SC-Black-61" x="430.899887"/>
      <use xlink:href="#STSongti-SC-Black-73" x="480.199875"/>
     </g>
    </g>
   </g>
   <g id="text_8">
    <g clip-path="url(#p7af9cfc625)">
     <!-- Coke -->
     <g transform="translate(350.007223 374.453081) scale(0.14 -0.14)">
      <defs>
       <path id="STSongti-SC-Black-6b" d="M 3341 358 
Q 3219 371 2998 377 
Q 2778 384 2554 384 
Q 2330 384 2128 377 
Q 1926 371 1805 358 
L 1805 525 
L 1978 550 
Q 2118 570 2118 608 
Q 2118 659 2012 806 
Q 1907 954 1702 1222 
Q 1600 1350 1501 1449 
Q 1402 1549 1306 1549 
L 1248 1549 
L 1248 832 
Q 1248 672 1283 630 
Q 1318 589 1408 570 
L 1587 525 
L 1587 358 
Q 1536 365 1449 371 
Q 1363 378 1257 381 
Q 1152 384 1040 384 
Q 928 384 826 384 
Q 621 384 409 377 
Q 198 371 96 358 
L 96 525 
L 333 563 
Q 448 582 480 624 
Q 512 666 512 832 
L 512 3885 
Q 512 3962 499 4006 
Q 486 4051 444 4080 
Q 403 4109 326 4128 
Q 250 4147 115 4166 
L 115 4320 
Q 198 4339 336 4364 
Q 474 4390 624 4425 
Q 774 4461 915 4505 
Q 1056 4550 1146 4608 
L 1248 4608 
L 1248 1786 
Q 1312 1786 1366 1802 
Q 1421 1818 1478 1856 
Q 1536 1894 1606 1955 
Q 1677 2016 1786 2106 
Q 2003 2278 2086 2352 
Q 2170 2426 2170 2483 
Q 2170 2618 1760 2675 
L 1760 2822 
L 3123 2822 
L 3123 2675 
Q 2899 2650 2697 2570 
Q 2496 2490 2330 2336 
L 1926 2022 
Q 2061 1850 2221 1632 
Q 2381 1414 2537 1209 
Q 2694 1005 2844 841 
Q 2995 678 3110 614 
Q 3142 595 3171 585 
Q 3200 576 3226 563 
L 3341 525 
L 3341 358 
z
" transform="scale(0.015625)"/>
      </defs>
      <use xlink:href="#STSongti-SC-Black-43"/>
      <use xlink:href="#STSongti-SC-Black-6f" x="63.599991"/>
      <use xlink:href="#STSongti-SC-Black-6b" x="111.999985"/>
      <use xlink:href="#STSongti-SC-Black-65" x="163.699982"/>
     </g>
    </g>
   </g>
   <g id="text_9">
    <!-- 2021-12-30 -->
    <g transform="translate(207.729375 19.44) scale(0.12 -0.12)">
     <defs>
      <path id="STSongti-SC-Black-32" d="M 2726 365 
Q 2496 371 2227 377 
Q 1958 384 1542 384 
Q 1120 384 777 381 
Q 435 378 211 365 
Q 230 518 262 659 
Q 294 800 377 957 
Q 461 1114 605 1299 
Q 749 1485 992 1734 
L 1229 1978 
Q 1478 2227 1625 2412 
Q 1773 2598 1849 2748 
Q 1926 2899 1945 3033 
Q 1965 3168 1965 3322 
Q 1965 3622 1779 3801 
Q 1594 3981 1280 3981 
Q 954 3981 746 3769 
Q 538 3558 461 3162 
L 262 3238 
Q 352 3827 694 4137 
Q 1037 4448 1549 4448 
Q 1779 4448 1984 4384 
Q 2189 4320 2342 4195 
Q 2496 4070 2589 3888 
Q 2682 3706 2682 3469 
Q 2682 3219 2592 3008 
Q 2502 2797 2348 2608 
Q 2195 2419 1993 2246 
Q 1792 2074 1574 1907 
L 1382 1754 
Q 1216 1619 1030 1427 
Q 845 1235 685 979 
L 2074 979 
Q 2234 979 2317 1011 
Q 2400 1043 2448 1116 
Q 2496 1190 2531 1302 
Q 2566 1414 2624 1568 
L 2822 1568 
L 2726 365 
z
" transform="scale(0.015625)"/>
      <path id="STSongti-SC-Black-30" d="M 1517 4448 
Q 1792 4448 2045 4285 
Q 2298 4122 2486 3840 
Q 2675 3558 2787 3177 
Q 2899 2797 2899 2362 
Q 2899 1933 2790 1555 
Q 2682 1178 2493 893 
Q 2304 608 2054 445 
Q 1805 282 1523 282 
Q 1248 282 995 442 
Q 742 602 550 880 
Q 358 1158 246 1539 
Q 134 1920 134 2355 
Q 134 2797 246 3181 
Q 358 3565 547 3846 
Q 736 4128 985 4288 
Q 1235 4448 1517 4448 
z
M 1517 518 
Q 1869 518 1997 966 
Q 2125 1414 2125 2362 
Q 2125 3309 1993 3760 
Q 1862 4211 1517 4211 
Q 1171 4211 1040 3763 
Q 909 3315 909 2362 
Q 909 518 1517 518 
z
" transform="scale(0.015625)"/>
      <path id="STSongti-SC-Black-31" d="M 2464 365 
Q 2298 371 2045 377 
Q 1792 384 1523 384 
Q 1254 384 1001 377 
Q 749 371 582 365 
L 582 550 
L 979 608 
Q 1203 659 1203 858 
L 1203 3840 
L 442 3347 
L 333 3546 
Q 442 3616 608 3718 
Q 774 3821 960 3942 
Q 1146 4064 1331 4192 
Q 1517 4320 1670 4448 
L 1882 4448 
L 1882 858 
Q 1882 634 2106 602 
L 2464 550 
L 2464 365 
z
" transform="scale(0.015625)"/>
      <path id="STSongti-SC-Black-2d" d="M 243 1773 
L 1760 1773 
L 1760 1498 
L 243 1498 
L 243 1773 
z
" transform="scale(0.015625)"/>
      <path id="STSongti-SC-Black-33" d="M 576 3430 
L 474 3526 
Q 550 3731 646 3900 
Q 742 4070 876 4192 
Q 1011 4314 1193 4381 
Q 1376 4448 1619 4448 
Q 1779 4448 1939 4409 
Q 2099 4371 2224 4288 
Q 2349 4205 2425 4083 
Q 2502 3962 2502 3789 
Q 2502 3539 2281 3289 
Q 2061 3040 1683 2822 
Q 1939 2842 2153 2771 
Q 2368 2701 2518 2560 
Q 2669 2419 2752 2214 
Q 2835 2010 2835 1760 
Q 2835 1446 2707 1174 
Q 2579 902 2355 704 
Q 2131 506 1833 394 
Q 1536 282 1203 282 
Q 762 282 518 403 
Q 275 525 275 717 
Q 275 787 323 854 
Q 371 922 457 950 
Q 544 979 653 950 
Q 762 922 890 800 
Q 986 704 1053 640 
Q 1120 576 1174 541 
Q 1229 506 1277 490 
Q 1325 474 1389 474 
Q 1581 474 1725 570 
Q 1869 666 1965 826 
Q 2061 986 2105 1184 
Q 2150 1382 2150 1587 
Q 2150 1997 1955 2198 
Q 1760 2400 1498 2400 
Q 1331 2400 1206 2345 
Q 1082 2291 954 2182 
L 845 2330 
Q 909 2387 979 2444 
Q 1050 2502 1126 2560 
Q 1478 2822 1676 3030 
Q 1875 3238 1875 3437 
Q 1875 3686 1731 3824 
Q 1587 3962 1306 3962 
Q 1101 3962 902 3843 
Q 704 3725 576 3430 
z
" transform="scale(0.015625)"/>
     </defs>
     <use xlink:href="#STSongti-SC-Black-32"/>
     <use xlink:href="#STSongti-SC-Black-30" x="46.899994"/>
     <use xlink:href="#STSongti-SC-Black-32" x="93.799988"/>
     <use xlink:href="#STSongti-SC-Black-31" x="140.699982"/>
     <use xlink:href="#STSongti-SC-Black-2d" x="187.599976"/>
     <use xlink:href="#STSongti-SC-Black-31" x="218.899963"/>
     <use xlink:href="#STSongti-SC-Black-32" x="265.799957"/>
     <use xlink:href="#STSongti-SC-Black-2d" x="312.699951"/>
     <use xlink:href="#STSongti-SC-Black-33" x="343.999939"/>
     <use xlink:href="#STSongti-SC-Black-30" x="390.899933"/>
    </g>
   </g>
  </g>
 </g>
 <defs>
  <clipPath id="p7af9cfc625">
   <rect x="10.8" y="39.44" width="446.4" height="417.76"/>
  </clipPath>
 </defs>
</svg>
